<?xml version="1.0" encoding="UTF-8" standalone="no"?>
<!DOCTYPE svg PUBLIC "-//W3C//DTD SVG 1.1//EN"
 "http://www.w3.org/Graphics/SVG/1.1/DTD/svg11.dtd">
<!-- Generated by graphviz version 2.40.1 (20161225.0304)
 -->
<!-- Title: erd Pages: 1 -->
<svg width="138pt" height="236pt"
 viewBox="0.00 0.00 138.00 236.00" xmlns="http://www.w3.org/2000/svg" xmlns:xlink="http://www.w3.org/1999/xlink">
<g id="graph0" class="graph" transform="scale(1 1) rotate(0) translate(4 232)">
<title>erd</title>
<polygon fill="#ffffff" stroke="transparent" points="-4,4 -4,-232 134,-232 134,4 -4,4"/>
<!-- Characters -->
<g id="node1" class="node">
<title>Characters</title>
<polygon fill="#e8e8f8" stroke="transparent" points="8,-202 8,-224 122,-224 122,-202 8,-202"/>
<polygon fill="none" stroke="#000000" points="8,-202 8,-224 122,-224 122,-202 8,-202"/>
<text text-anchor="start" x="35.0743" y="-209.4" font-family="Times,serif" font-weight="bold" font-size="14.00" fill="#000000">Characters</text>
<polygon fill="none" stroke="#000000" points="8,-180 8,-202 57,-202 57,-180 8,-180"/>
<text text-anchor="start" x="10.5298" y="-186.4" font-family="Times,serif" font-size="14.00" fill="#000000">id   PK</text>
<polygon fill="none" stroke="#000000" points="57,-180 57,-202 122,-202 122,-180 57,-180"/>
<text text-anchor="start" x="59.5659" y="-186.4" font-family="Times,serif" font-size="14.00" fill="#000000">INTEGER</text>
<polygon fill="none" stroke="#000000" points="8,-158 8,-180 57,-180 57,-158 8,-158"/>
<text text-anchor="start" x="11" y="-164.4" font-family="Times,serif" font-size="14.00" fill="#000000">name</text>
<polygon fill="none" stroke="#000000" points="57,-158 57,-180 122,-180 122,-158 57,-158"/>
<text text-anchor="start" x="64.2272" y="-164.4" font-family="Times,serif" font-size="14.00" fill="#000000">STRING</text>
<polygon fill="none" stroke="#000000" points="8,-136 8,-158 57,-158 57,-136 8,-136"/>
<text text-anchor="start" x="11" y="-142.4" font-family="Times,serif" font-size="14.00" fill="#000000">status</text>
<polygon fill="none" stroke="#000000" points="57,-136 57,-158 122,-158 122,-136 57,-136"/>
<text text-anchor="start" x="64.2272" y="-142.4" font-family="Times,serif" font-size="14.00" fill="#000000">STRING</text>
<polygon fill="none" stroke="#000000" points="8,-114 8,-136 57,-136 57,-114 8,-114"/>
<text text-anchor="start" x="11" y="-120.4" font-family="Times,serif" font-size="14.00" fill="#000000">species</text>
<polygon fill="none" stroke="#000000" points="57,-114 57,-136 122,-136 122,-114 57,-114"/>
<text text-anchor="start" x="64.2272" y="-120.4" font-family="Times,serif" font-size="14.00" fill="#000000">STRING</text>
<polygon fill="none" stroke="#000000" points="8,-92 8,-114 57,-114 57,-92 8,-92"/>
<text text-anchor="start" x="11" y="-98.4" font-family="Times,serif" font-size="14.00" fill="#000000">type</text>
<polygon fill="none" stroke="#000000" points="57,-92 57,-114 122,-114 122,-92 57,-92"/>
<text text-anchor="start" x="64.2272" y="-98.4" font-family="Times,serif" font-size="14.00" fill="#000000">STRING</text>
<polygon fill="none" stroke="#000000" points="8,-70 8,-92 57,-92 57,-70 8,-70"/>
<text text-anchor="start" x="11" y="-76.4" font-family="Times,serif" font-size="14.00" fill="#000000">gender</text>
<polygon fill="none" stroke="#000000" points="57,-70 57,-92 122,-92 122,-70 57,-70"/>
<text text-anchor="start" x="64.2272" y="-76.4" font-family="Times,serif" font-size="14.00" fill="#000000">STRING</text>
<polygon fill="none" stroke="#000000" points="8,-48 8,-70 57,-70 57,-48 8,-48"/>
<text text-anchor="start" x="11" y="-54.4" font-family="Times,serif" font-size="14.00" fill="#000000">origin</text>
<polygon fill="none" stroke="#000000" points="57,-48 57,-70 122,-70 122,-48 57,-48"/>
<text text-anchor="start" x="64.2272" y="-54.4" font-family="Times,serif" font-size="14.00" fill="#000000">STRING</text>
<polygon fill="none" stroke="#000000" points="8,-26 8,-48 57,-48 57,-26 8,-26"/>
<text text-anchor="start" x="11" y="-32.4" font-family="Times,serif" font-size="14.00" fill="#000000">image</text>
<polygon fill="none" stroke="#000000" points="57,-26 57,-48 122,-48 122,-26 57,-26"/>
<text text-anchor="start" x="64.2272" y="-32.4" font-family="Times,serif" font-size="14.00" fill="#000000">STRING</text>
<polygon fill="none" stroke="#000000" points="8,-4 8,-26 57,-26 57,-4 8,-4"/>
<text text-anchor="start" x="11" y="-10.4" font-family="Times,serif" font-size="14.00" fill="#000000">url</text>
<polygon fill="none" stroke="#000000" points="57,-4 57,-26 122,-26 122,-4 57,-4"/>
<text text-anchor="start" x="64.2272" y="-10.4" font-family="Times,serif" font-size="14.00" fill="#000000">STRING</text>
</g>
</g>
</svg>
